<?xml version="1.0" encoding="UTF-8"?>
<svg xmlns="http://www.w3.org/2000/svg" width="60" height="48" viewBox="0 0 60 48" fill="none">
  <path d="M25.7812 28.5C30.3438 28.625 34.1562 30.2188 37.2188 33.2812C40.2812 36.3438 41.875 40.1562 42 44.7188C42 45.6562 41.6875 46.4375 41.0625 47.0625C40.4375 47.6875 39.6562 48 38.7188 48H3.28125C2.34375 48 1.5625 47.6875 0.9375 47.0625C0.3125 46.4375 0 45.6562 0 44.7188C0.125 40.1562 1.71875 36.3438 4.78125 33.2812C7.84375 30.2188 11.6562 28.625 16.2188 28.5H25.7812ZM38.7188 46.5C39.7812 46.375 40.375 45.7812 40.5 44.7188C40.375 40.5938 38.9375 37.125 36.1875 34.3125C33.375 31.5625 29.9062 30.125 25.7812 30H16.2188C12.0312 30.125 8.5625 31.5625 5.8125 34.3125C3 37.125 1.5625 40.5938 1.5 44.7188C1.625 45.7812 2.21875 46.375 3.28125 46.5H38.7188ZM21 24C17.625 23.9375 14.7812 22.7812 12.4688 20.5312C10.2188 18.2188 9.0625 15.375 9 12C9.0625 8.625 10.2188 5.78125 12.4688 3.46875C14.7812 1.21875 17.625 0.0625 21 0C24.375 0.0625 27.2188 1.21875 29.5312 3.46875C31.7812 5.78125 32.9375 8.625 33 12C32.9375 15.375 31.7812 18.2188 29.5312 20.5312C27.2188 22.7812 24.375 23.9375 21 24ZM20.9062 1.5C17.9688 1.5625 15.5 2.59375 13.5 4.59375C11.5 6.53125 10.4688 9 10.4062 12C10.4688 15 11.5 17.4688 13.5 19.4062C15.4375 21.4062 17.9062 22.4375 20.9062 22.5C23.9062 22.4375 26.4062 21.4062 28.4062 19.4062C30.4062 17.4688 31.4375 15 31.5 12C31.4375 9 30.4062 6.53125 28.4062 4.59375C26.4062 2.59375 23.9062 1.5625 20.9062 1.5ZM40.5 24C38.375 23.9375 36.4688 23.375 34.7812 22.3125C34.4688 22 34.4062 21.6562 34.5938 21.2812C34.5938 21.2812 34.625 21.25 34.6875 21.1875C34.9375 20.875 35.25 20.8125 35.625 21C37.0625 21.9375 38.6875 22.4375 40.5 22.5C43.0625 22.4375 45.1875 21.5625 46.875 19.875C48.5625 18.1875 49.4375 16.0625 49.5 13.5C49.4375 11.125 48.6562 9.125 47.1562 7.5C45.6562 5.8125 43.75 4.84375 41.4375 4.59375C39.75 4.40625 38.2188 4.65625 36.8438 5.34375C36.4688 5.46875 36.1562 5.34375 35.9062 4.96875C35.9062 4.96875 35.9062 4.9375 35.9062 4.875C35.7188 4.5 35.8438 4.1875 36.2812 3.9375C38.2812 2.9375 40.5312 2.75 43.0312 3.375C45.2812 3.9375 47.125 5.0625 48.5625 6.75C49.9375 8.4375 50.75 10.4375 51 12.75C51.125 15.875 50.1875 18.5 48.1875 20.625C46.1875 22.8125 43.625 23.9375 40.5 24ZM44.9062 30C49.2188 30.125 52.7812 31.5938 55.5938 34.4062C58.4062 37.2188 59.875 40.7188 60 44.9062C60 45.7812 59.7188 46.5 59.1562 47.0625C58.5938 47.6875 57.875 48 57 48H46.5C46.0625 47.9375 45.8125 47.6875 45.75 47.25C45.8125 46.8125 46.0625 46.5625 46.5 46.5H57C57.875 46.375 58.3438 45.875 58.4062 45C58.3438 41.1875 57.0312 38 54.4688 35.4375C51.9062 32.9375 48.7188 31.625 44.9062 31.5H42C41.5625 31.4375 41.3125 31.1875 41.25 30.75C41.3125 30.3125 41.5625 30.0625 42 30H44.9062Z" fill="#123B37"></path>
</svg>
