<?xml version="1.0" encoding="UTF-8"?>
<svg xmlns="http://www.w3.org/2000/svg" width="62" height="48" viewBox="0 0 62 48" fill="none">
  <path d="M60.4375 26.1562C60.875 26.7188 61.0625 27.3438 61 28.0312C60.6875 31.1562 59.4062 33.75 57.1562 35.8125C54.9688 37.875 52.25 38.9375 49 39C45.75 38.9375 43.0312 37.875 40.8438 35.8125C38.5938 33.75 37.3125 31.125 37 27.9375C37 27.25 37.1875 26.625 37.5625 26.0625L47.7812 9.65625C48.0938 9.21875 48.5 9 49 9C49.5 9 49.9062 9.25 50.2188 9.75L60.4375 26.1562ZM38.7812 27H59.2188L49 10.5L38.7812 27ZM48.9062 37.5C51.6562 37.4375 53.9688 36.5625 55.8438 34.875C57.7812 33.25 58.9375 31.125 59.3125 28.5H38.5C38.9375 31.125 40.125 33.25 42.0625 34.875C43.9375 36.5625 46.2188 37.4375 48.9062 37.5ZM25 28.0312C24.625 31.1562 23.3125 33.75 21.0625 35.8125C18.8125 37.875 16.0938 38.9375 12.9062 39C9.71875 38.9375 7.03125 37.875 4.84375 35.8125C2.59375 33.75 1.3125 31.1562 1 28.0312C0.9375 27.3438 1.125 26.7188 1.5625 26.1562L11.6875 9.65625C12 9.21875 12.4062 9 12.9062 9C13.4688 9 13.9062 9.25 14.2188 9.75L24.4375 26.1562C24.875 26.7188 25.0625 27.3438 25 28.0312ZM2.78125 27H23.2188L13 10.5L2.78125 27ZM2.59375 28.5C3.03125 31.125 4.21875 33.25 6.15625 34.875C8.03125 36.5625 10.3125 37.4375 13 37.5C15.6875 37.4375 17.9688 36.5625 19.8438 34.875C21.7812 33.25 22.9688 31.125 23.4062 28.5H2.59375ZM51.1562 46.5C51.6562 46.5625 51.875 46.8125 51.8125 47.25C51.8125 47.6875 51.5938 47.9375 51.1562 48H10.75C10.3125 47.9375 10.0938 47.6875 10.0938 47.25C10.0938 46.8125 10.3125 46.5625 10.75 46.5H30.25V12C30.25 12 30.2188 11.9688 30.1562 11.9062C28.6562 11.7188 27.4062 11.0625 26.4062 9.9375C25.4688 8.875 24.9688 7.5625 24.9062 6H10.75C10.3125 5.9375 10.0938 5.6875 10.0938 5.25C10.0938 4.8125 10.3125 4.5625 10.75 4.5H25C25.0625 4.5 25.0938 4.5 25.0938 4.5C25.1562 4.5625 25.1875 4.59375 25.1875 4.59375C25.5625 3.21875 26.25 2.125 27.25 1.3125C28.3125 0.4375 29.5625 0 31 0C32.4375 0 33.6875 0.4375 34.75 1.3125C35.75 2.125 36.4375 3.21875 36.8125 4.59375C36.8125 4.59375 36.8438 4.5625 36.9062 4.5C36.9062 4.5 36.9375 4.5 37 4.5H51.1562C51.6562 4.5625 51.875 4.8125 51.8125 5.25C51.8125 5.6875 51.5938 5.9375 51.1562 6H37C36.9375 7.5625 36.4375 8.875 35.5 9.9375C34.5 11.0625 33.2188 11.7188 31.6562 11.9062C31.6562 11.9062 31.6562 11.9375 31.6562 12V46.5H51.1562ZM26.5 6C26.5625 7.25 27 8.3125 27.8125 9.1875C28.6875 10 29.75 10.4375 31 10.5C32.25 10.4375 33.2812 10 34.0938 9.1875C34.9062 8.3125 35.3125 7.25 35.3125 6C35.3125 4.75 34.875 3.6875 34 2.8125C33.1875 2 32.1562 1.5625 30.9062 1.5C29.6562 1.5625 28.625 2 27.8125 2.8125C27 3.6875 26.5625 4.75 26.5 6Z" fill="#123B37"></path>
</svg>
