<?xml version="1.0" encoding="UTF-8"?>
<svg xmlns="http://www.w3.org/2000/svg" width="60" height="48" viewBox="0 0 60 48" fill="none">
  <path d="M31.5 6V15.8438L30 14.4375V6C30.0625 4.3125 30.6562 2.90625 31.7812 1.78125C32.9062 0.65625 34.3125 0.0625 36 0H54C55.6875 0.0625 57.0938 0.65625 58.2188 1.78125C59.3438 2.90625 59.9375 4.3125 60 6V42C59.9375 43.6875 59.3438 45.0938 58.2188 46.2188C57.0938 47.3438 55.6875 47.9375 54 48H37.5C37.875 47.5625 38.1562 47.0625 38.3438 46.5H54C55.25 46.4375 56.3125 46 57.1875 45.1875C58 44.3125 58.4375 43.25 58.5 42V6C58.4375 4.75 58 3.6875 57.1875 2.8125C56.3125 2 55.25 1.5625 54 1.5H36C34.75 1.5625 33.6875 2 32.8125 2.8125C32 3.6875 31.5625 4.75 31.5 6ZM39 25.9688C39 25.8438 39 25.6875 39 25.5H41.25C41.6875 25.4375 41.9375 25.1875 42 24.75V21.75C41.9375 21.3125 41.6875 21.0625 41.25 21H38.25C37.875 21 37.625 21.1875 37.5 21.5625C37.25 21.125 36.9375 20.75 36.5625 20.4375L36.4688 20.3438C36.9062 19.7812 37.5 19.5 38.25 19.5H41.25C42.625 19.625 43.375 20.375 43.5 21.75V24.75C43.375 26.125 42.625 26.875 41.25 27H39V25.9688ZM39 36H41.25C41.6875 35.9375 41.9375 35.6875 42 35.25V32.25C41.9375 31.8125 41.6875 31.5625 41.25 31.5H39V30H41.25C42.625 30.125 43.375 30.875 43.5 32.25V35.25C43.375 36.625 42.625 37.375 41.25 37.5H39V36ZM51.75 19.5C53.125 19.625 53.875 20.375 54 21.75V24.75C53.875 26.125 53.125 26.875 51.75 27H48.75C47.375 26.875 46.625 26.125 46.5 24.75V21.75C46.625 20.375 47.375 19.625 48.75 19.5H51.75ZM48 24.75C48.0625 25.1875 48.3125 25.4375 48.75 25.5H51.75C52.1875 25.4375 52.4375 25.1875 52.5 24.75V21.75C52.4375 21.3125 52.1875 21.0625 51.75 21H48.75C48.3125 21.0625 48.0625 21.3125 48 21.75V24.75ZM46.5 32.25C46.625 30.875 47.375 30.125 48.75 30H51.75C53.125 30.125 53.875 30.875 54 32.25V35.25C53.875 36.625 53.125 37.375 51.75 37.5H48.75C47.375 37.375 46.625 36.625 46.5 35.25V32.25ZM48.75 31.5C48.3125 31.5625 48.0625 31.8125 48 32.25V35.25C48.0625 35.6875 48.3125 35.9375 48.75 36H51.75C52.1875 35.9375 52.4375 35.6875 52.5 35.25V32.25C52.4375 31.8125 52.1875 31.5625 51.75 31.5H48.75ZM41.25 9C42.625 9.125 43.375 9.875 43.5 11.25V14.25C43.375 15.625 42.625 16.375 41.25 16.5H38.25C36.875 16.375 36.125 15.625 36 14.25V11.25C36.125 9.875 36.875 9.125 38.25 9H41.25ZM37.5 14.25C37.5625 14.6875 37.8125 14.9375 38.25 15H41.25C41.6875 14.9375 41.9375 14.6875 42 14.25V11.25C41.9375 10.8125 41.6875 10.5625 41.25 10.5H38.25C37.8125 10.5625 37.5625 10.8125 37.5 11.25V14.25ZM46.5 11.25C46.625 9.875 47.375 9.125 48.75 9H51.75C53.125 9.125 53.875 9.875 54 11.25V14.25C53.875 15.625 53.125 16.375 51.75 16.5H48.75C47.375 16.375 46.625 15.625 46.5 14.25V11.25ZM48.75 10.5C48.3125 10.5625 48.0625 10.8125 48 11.25V14.25C48.0625 14.6875 48.3125 14.9375 48.75 15H51.75C52.1875 14.9375 52.4375 14.6875 52.5 14.25V11.25C52.4375 10.8125 52.1875 10.5625 51.75 10.5H48.75ZM21 24.6562C21.625 24.6562 22.1562 24.875 22.5938 25.3125C23.0312 25.75 23.25 26.2812 23.25 26.9062V33C23.125 34.375 22.375 35.125 21 35.25H15C13.625 35.125 12.875 34.375 12.75 33V26.9062C12.75 26.2812 12.9688 25.75 13.4062 25.3125C13.8438 24.875 14.375 24.6562 15 24.6562H21ZM21 26.1562H15C14.5625 26.2188 14.3125 26.4688 14.25 26.9062V33C14.3125 33.4375 14.5625 33.6875 15 33.75H21C21.4375 33.6875 21.6875 33.4375 21.75 33V26.9062C21.6875 26.4688 21.4375 26.2188 21 26.1562ZM0 42.75V26.3438C0 24.7188 0.5625 23.4062 1.6875 22.4062L14.4375 10.7812C15.5 9.84375 16.6875 9.375 18 9.375C19.3125 9.375 20.5 9.84375 21.5625 10.7812L34.3125 22.4062C35.4375 23.4688 36 24.7812 36 26.3438V42.75C35.9375 44.25 35.4375 45.5 34.5 46.5C33.5 47.4375 32.25 47.9375 30.75 48H5.25C3.75 47.9375 2.5 47.4375 1.5 46.5C0.5625 45.5 0.0625 44.25 0 42.75ZM1.5 26.3438V42.75C1.5 43.8125 1.875 44.6875 2.625 45.375C3.3125 46.125 4.1875 46.5 5.25 46.5H30.75C31.8125 46.5 32.6875 46.125 33.375 45.375C34.125 44.6875 34.5 43.8125 34.5 42.75V26.3438C34.5 25.2188 34.0938 24.2812 33.2812 23.5312L20.5312 11.9062C19.7812 11.2188 18.9375 10.875 18 10.875C17.0625 10.875 16.1875 11.2188 15.375 11.9062L2.71875 23.5312C1.90625 24.2812 1.5 25.2188 1.5 26.3438Z" fill="#123B37"></path>
</svg>
