<?xml version="1.0" encoding="UTF-8"?>
<svg xmlns="http://www.w3.org/2000/svg" width="48" height="48" viewBox="0 0 48 48" fill="none">
  <path d="M3.75 11.25C3.3125 11.1875 3.0625 10.9375 3 10.5C3.0625 10.0625 3.3125 9.8125 3.75 9.75H17.25C17.6875 9.8125 17.9375 10.0625 18 10.5C17.9375 10.9375 17.6875 11.1875 17.25 11.25H3.75ZM30.75 11.25C30.3125 11.1875 30.0625 10.9375 30 10.5C30.0625 10.0625 30.3125 9.8125 30.75 9.75H36.75V3.75C36.8125 3.3125 37.0625 3.0625 37.5 3C37.9375 3.0625 38.1875 3.3125 38.25 3.75V9.75H44.25C44.6875 9.8125 44.9375 10.0625 45 10.5C44.9375 10.9375 44.6875 11.1875 44.25 11.25H38.25V17.25C38.1875 17.6875 37.9375 17.9375 37.5 18C37.0625 17.9375 36.8125 17.6875 36.75 17.25V11.25H30.75ZM15.8438 32.1562C16.0938 32.5312 16.0938 32.9062 15.8438 33.2812L11.5312 37.5L15.8438 41.7188C16.0938 42.0938 16.0938 42.4688 15.8438 42.8438C15.4688 43.0938 15.0938 43.0938 14.7188 42.8438L10.5 38.5312L6.28125 42.8438C5.90625 43.0938 5.53125 43.0938 5.15625 42.8438C4.90625 42.4688 4.90625 42.0938 5.15625 41.7188L9.46875 37.5L5.15625 33.2812C4.90625 32.9062 4.90625 32.5312 5.15625 32.1562C5.53125 31.9062 5.90625 31.9062 6.28125 32.1562L10.5 36.4688L14.7188 32.1562C15.0938 31.9062 15.4688 31.9062 15.8438 32.1562ZM44.25 33.75C44.6875 33.8125 44.9375 34.0625 45 34.5C44.9375 34.9375 44.6875 35.1875 44.25 35.25H30.75C30.3125 35.1875 30.0625 34.9375 30 34.5C30.0625 34.0625 30.3125 33.8125 30.75 33.75H44.25ZM44.25 39.75C44.6875 39.8125 44.9375 40.0625 45 40.5C44.9375 40.9375 44.6875 41.1875 44.25 41.25H30.75C30.3125 41.1875 30.0625 40.9375 30 40.5C30.0625 40.0625 30.3125 39.8125 30.75 39.75H44.25ZM47.25 23.25C47.6875 23.3125 47.9375 23.5625 48 24C47.9375 24.4375 47.6875 24.6875 47.25 24.75H24.75V47.25C24.6875 47.6875 24.4375 47.9375 24 48C23.5625 47.9375 23.3125 47.6875 23.25 47.25V24.75H0.75C0.3125 24.6875 0.0625 24.4375 0 24C0.0625 23.5625 0.3125 23.3125 0.75 23.25H23.25V0.75C23.3125 0.3125 23.5625 0.0625 24 0C24.4375 0.0625 24.6875 0.3125 24.75 0.75V23.25H47.25Z" fill="#123B37"></path>
</svg>
