<?xml version="1.0" encoding="UTF-8"?>
<svg xmlns="http://www.w3.org/2000/svg" width="42" height="48" viewBox="0 0 42 48" fill="none">
  <path d="M9 12C9.0625 8.625 10.2188 5.78125 12.4688 3.46875C14.7812 1.21875 17.625 0.0625 21 0C24.375 0.0625 27.2188 1.21875 29.5312 3.46875C31.7812 5.78125 32.9375 8.625 33 12C32.9375 15.375 31.7812 18.2188 29.5312 20.5312C27.2188 22.7812 24.375 23.9375 21 24C17.625 23.9375 14.7812 22.7812 12.4688 20.5312C10.2188 18.2188 9.0625 15.375 9 12ZM31.5 12C31.4375 9 30.4062 6.53125 28.4062 4.59375C26.4688 2.59375 24 1.5625 21 1.5C18 1.5625 15.5312 2.59375 13.5938 4.59375C11.5938 6.53125 10.5625 9 10.5 12C10.5625 15 11.5938 17.4688 13.5938 19.4062C15.5312 21.4062 18 22.4375 21 22.5C24 22.4375 26.4688 21.4062 28.4062 19.4062C30.4062 17.4688 31.4375 15 31.5 12ZM16.5938 28.875C16.7188 28.625 16.9375 28.5 17.25 28.5H24.75C25 28.5 25.2188 28.625 25.4062 28.875C25.5312 29.1875 25.5312 29.4688 25.4062 29.7188L21.8438 34.5938L24.0938 38.9062L28.5 30.0938C32.375 30.5938 35.5625 32.2188 38.0625 34.9688C40.625 37.7188 41.9375 41.0938 42 45.0938C42 45.9062 41.7188 46.5938 41.1562 47.1562C40.5938 47.6562 39.9062 47.9062 39.0938 47.9062H2.90625C2.09375 47.9062 1.40625 47.6562 0.84375 47.1562C0.28125 46.5938 0 45.9062 0 45.0938C0.0625 41.0938 1.375 37.7188 3.9375 34.9688C6.4375 32.2188 9.625 30.5938 13.5 30.0938L18 38.9062L20.1562 34.5938L16.6875 29.7188C16.5 29.4688 16.4688 29.1875 16.5938 28.875ZM18.75 30L21 33.1875L23.3438 30H18.75ZM12.6562 31.6875C9.40625 32.375 6.75 33.9375 4.6875 36.375C2.625 38.8125 1.5625 41.7188 1.5 45.0938C1.5625 45.9062 2.03125 46.3438 2.90625 46.4062H20.0625L12.6562 31.6875ZM18.8438 40.5938L21 45L23.25 40.5938L21 36.1875L18.8438 40.5938ZM40.5 45.0938C40.4375 41.7188 39.375 38.8125 37.3125 36.375C35.25 33.9375 32.5938 32.375 29.3438 31.6875L21.9375 46.4062H39.0938C39.9688 46.3438 40.4375 45.9062 40.5 45.0938Z" fill="#123B37"></path>
</svg>
