<?xml version="1.0" encoding="UTF-8"?>
<svg xmlns="http://www.w3.org/2000/svg" width="48" height="45" viewBox="0 0 48 45" fill="none">
  <path d="M43.5 9C44.75 9.0625 45.8125 9.5 46.6875 10.3125C47.5 11.1875 47.9375 12.25 48 13.5V40.5C47.9375 41.75 47.5 42.8125 46.6875 43.6875C45.8125 44.5 44.75 44.9375 43.5 45H4.5C3.25 44.9375 2.1875 44.5 1.3125 43.6875C0.5 42.8125 0.0625 41.75 0 40.5V13.5C0.0625 12.25 0.5 11.1875 1.3125 10.3125C2.1875 9.5 3.25 9.0625 4.5 9H12V3.75C12 2.6875 12.375 1.8125 13.125 1.125C13.8125 0.375 14.6875 0 15.75 0H32.25C33.3125 0 34.1875 0.375 34.875 1.125C35.625 1.8125 36 2.6875 36 3.75V9H43.5ZM13.5 3.75V9H34.5V3.75C34.375 2.375 33.625 1.625 32.25 1.5H15.75C14.375 1.625 13.625 2.375 13.5 3.75ZM46.5 40.5V25.5H31.5V30.75C31.375 32.125 30.625 32.875 29.25 33H18.75C17.375 32.875 16.625 32.125 16.5 30.75V25.5H1.5V40.5C1.5 41.375 1.78125 42.0938 2.34375 42.6562C2.90625 43.2188 3.625 43.5 4.5 43.5H43.5C44.375 43.5 45.0938 43.2188 45.6562 42.6562C46.2188 42.0938 46.5 41.375 46.5 40.5ZM30 25.5H18V30.75C18.0625 31.1875 18.3125 31.4375 18.75 31.5H29.25C29.6875 31.4375 29.9375 31.1875 30 30.75V25.5ZM1.5 24H46.5V13.5C46.5 12.625 46.2188 11.9062 45.6562 11.3438C45.0938 10.7812 44.375 10.5 43.5 10.5H4.5C3.625 10.5 2.90625 10.7812 2.34375 11.3438C1.78125 11.9062 1.5 12.625 1.5 13.5V24Z" fill="#123B37"></path>
</svg>
