<?xml version="1.0" encoding="UTF-8"?>
<svg xmlns="http://www.w3.org/2000/svg" width="158" height="39" viewBox="0 0 158 39" fill="none">
  <path d="M77.3829 36.0072H74.8607L74.3767 37.3351H73.79L75.8124 31.8158H76.4391L78.4536 37.3351H77.8669L77.3829 36.0072ZM77.2165 35.5435L76.1221 32.5202L75.0277 35.5435H77.2165Z" fill="white"></path>
  <path d="M86.9236 32.0804C87.3625 32.3045 87.6981 32.6271 87.9306 33.0481C88.163 33.4691 88.2797 33.971 88.2797 34.5518C88.2797 35.1327 88.1635 35.6249 87.9306 36.0436C87.6976 36.4623 87.3619 36.7821 86.9236 37.0034C86.4853 37.2247 85.9584 37.3351 85.3452 37.3351H83.7036V31.7441H85.3452C85.9584 31.7441 86.4847 31.8562 86.9236 32.0798V32.0804ZM87.1103 36.2592C87.5148 35.8513 87.7168 35.2824 87.7168 34.5513C87.7168 33.8202 87.5148 33.241 87.1103 32.8274C86.7059 32.4143 86.1175 32.2072 85.3458 32.2072H84.2593V36.8703H85.3458C86.1175 36.8703 86.7059 36.666 87.1103 36.2581V36.2592Z" fill="white"></path>
  <path d="M98.0585 31.7441L95.9572 37.3351H95.3225L93.2212 31.7441H93.8237L95.6396 36.7275L97.4718 31.7441H98.0585Z" fill="white"></path>
  <path d="M104.348 37.0273C103.93 36.7849 103.601 36.4464 103.361 36.0117C103.12 35.5771 103 35.0855 103 34.5359C103 33.9863 103.12 33.4947 103.361 33.0601C103.601 32.6254 103.93 32.2869 104.348 32.044C104.765 31.8016 105.231 31.6804 105.743 31.6804C106.256 31.6804 106.729 31.8016 107.147 32.044C107.564 32.2869 107.893 32.6254 108.13 33.0601C108.368 33.4947 108.487 33.9863 108.487 34.5359C108.487 35.0855 108.368 35.5771 108.13 36.0117C107.892 36.4464 107.564 36.7849 107.147 37.0273C106.729 37.2702 106.261 37.3914 105.743 37.3914C105.226 37.3914 104.765 37.2702 104.348 37.0273ZM106.854 36.6154C107.181 36.4237 107.44 36.1477 107.631 35.7876C107.821 35.428 107.916 35.0104 107.916 34.5359C107.916 34.0614 107.821 33.6455 107.631 33.2882C107.441 32.9309 107.181 32.6561 106.854 32.4644C106.526 32.2727 106.156 32.1765 105.743 32.1765C105.331 32.1765 104.961 32.2727 104.633 32.4644C104.305 32.6567 104.047 32.9315 103.856 33.2882C103.666 33.6455 103.57 34.0614 103.57 34.5359C103.57 35.0104 103.666 35.428 103.856 35.7876C104.046 36.1477 104.305 36.4237 104.633 36.6154C104.961 36.8077 105.331 36.9033 105.743 36.9033C106.156 36.9033 106.526 36.8071 106.854 36.6154Z" fill="white"></path>
  <path d="M118.227 33.3758C118.068 33.0077 117.826 32.7187 117.501 32.5082C117.176 32.2977 116.794 32.1924 116.355 32.1924C115.943 32.1924 115.573 32.2886 115.245 32.4803C114.917 32.6721 114.658 32.9457 114.468 33.3002C114.277 33.6552 114.182 34.0671 114.182 34.5359C114.182 35.0047 114.277 35.4183 114.468 35.7756C114.658 36.1329 114.917 36.4072 115.245 36.5995C115.573 36.7912 115.943 36.8873 116.355 36.8873C116.741 36.8873 117.088 36.8031 117.398 36.6353C117.708 36.4675 117.956 36.2274 118.144 35.9156C118.331 35.6032 118.438 35.2397 118.465 34.8238H116.133V34.3681H119.052V34.776C119.026 35.2664 118.894 35.7108 118.656 36.1079C118.418 36.505 118.099 36.8185 117.7 37.0478C117.301 37.2771 116.853 37.3914 116.356 37.3914C115.859 37.3914 115.378 37.2702 114.96 37.0273C114.542 36.7849 114.213 36.4464 113.973 36.0117C113.733 35.5771 113.612 35.0855 113.612 34.5359C113.612 33.9863 113.732 33.4947 113.973 33.0601C114.214 32.6254 114.543 32.2869 114.96 32.044C115.378 31.8016 115.843 31.6804 116.356 31.6804C116.948 31.6804 117.466 31.8295 117.91 32.1282C118.354 32.4268 118.677 32.8427 118.878 33.3758H118.227H118.227Z" fill="white"></path>
  <path d="M127.64 36.0072H125.118L124.635 37.3351H124.047L126.07 31.8158H126.696L128.711 37.3351H128.124L127.64 36.0072ZM127.474 35.5435L126.379 32.5202L125.285 35.5435H127.474Z" fill="white"></path>
  <path d="M137.181 32.0804C137.62 32.3045 137.956 32.6271 138.188 33.0481C138.421 33.4691 138.538 33.971 138.538 34.5518C138.538 35.1327 138.421 35.6249 138.188 36.0436C137.955 36.4623 137.62 36.7821 137.181 37.0034C136.743 37.2247 136.216 37.3351 135.603 37.3351H133.961V31.7441H135.603C136.216 31.7441 136.743 31.8562 137.181 32.0798V32.0804ZM137.368 36.2592C137.773 35.8513 137.975 35.2824 137.975 34.5513C137.975 33.8202 137.773 33.241 137.368 32.8274C136.963 32.4143 136.375 32.2072 135.604 32.2072H134.517V36.8703H135.604C136.375 36.8703 136.964 36.666 137.368 36.2581V36.2592Z" fill="white"></path>
  <path d="M145.017 37.0273C144.599 36.7849 144.27 36.4464 144.029 36.0117C143.788 35.5771 143.668 35.0855 143.668 34.5359C143.668 33.9863 143.789 33.4947 144.029 33.0601C144.269 32.6254 144.599 32.2869 145.017 32.044C145.434 31.8016 145.9 31.6804 146.412 31.6804C146.925 31.6804 147.398 31.8016 147.816 32.044C148.234 32.2869 148.562 32.6254 148.8 33.0601C149.038 33.4947 149.157 33.9863 149.157 34.5359C149.157 35.0855 149.038 35.5771 148.8 36.0117C148.562 36.4464 148.234 36.7849 147.816 37.0273C147.399 37.2702 146.931 37.3914 146.412 37.3914C145.894 37.3914 145.434 37.2702 145.017 37.0273ZM147.523 36.6154C147.851 36.4237 148.11 36.1477 148.3 35.7876C148.491 35.428 148.586 35.0104 148.586 34.5359C148.586 34.0614 148.491 33.6455 148.3 33.2882C148.11 32.9309 147.851 32.6561 147.523 32.4644C147.195 32.2727 146.825 32.1765 146.412 32.1765C145.999 32.1765 145.63 32.2727 145.302 32.4644C144.974 32.6567 144.715 32.9315 144.525 33.2882C144.335 33.6449 144.239 34.0614 144.239 34.5359C144.239 35.0104 144.335 35.428 144.525 35.7876C144.715 36.1477 144.974 36.4237 145.302 36.6154C145.63 36.8077 146 36.9033 146.412 36.9033C146.825 36.9033 147.195 36.8071 147.523 36.6154Z" fill="white"></path>
  <path d="M155.251 37.1991C154.974 37.0711 154.756 36.8925 154.597 36.6632C154.439 36.4339 154.354 36.1779 154.343 35.8951H154.931C154.957 36.1671 155.075 36.406 155.287 36.6108C155.499 36.8157 155.808 36.9186 156.215 36.9186C156.591 36.9186 156.888 36.8213 157.107 36.6268C157.327 36.4322 157.437 36.1858 157.437 35.8871C157.437 35.6471 157.376 35.4542 157.254 35.3074C157.132 35.1606 156.982 35.0514 156.802 34.9797C156.623 34.9074 156.374 34.8289 156.057 34.7436C155.687 34.6423 155.394 34.5433 155.176 34.4477C154.96 34.3516 154.775 34.2025 154.621 34C154.468 33.7974 154.392 33.5226 154.392 33.1761C154.392 32.8883 154.466 32.6311 154.614 32.4041C154.762 32.1777 154.971 32.0001 155.241 31.8721C155.51 31.7441 155.82 31.6804 156.168 31.6804C156.681 31.6804 157.095 31.8073 157.409 32.0605C157.724 32.3136 157.905 32.6402 157.953 33.0402H157.351C157.313 32.8109 157.189 32.6072 156.978 32.4286C156.766 32.2499 156.481 32.1606 156.121 32.1606C155.788 32.1606 155.51 32.2499 155.288 32.4286C155.066 32.6072 154.955 32.8513 154.955 33.1602C154.955 33.3952 155.016 33.5841 155.138 33.728C155.259 33.872 155.411 33.9812 155.594 34.0557C155.776 34.1303 156.023 34.2105 156.335 34.2958C156.695 34.3971 156.986 34.4972 157.207 34.5957C157.43 34.6947 157.617 34.8448 157.77 35.048C157.923 35.2511 158 35.5225 158 35.8638C158 36.1255 157.932 36.373 157.794 36.608C157.656 36.843 157.453 37.0319 157.183 37.1758C156.913 37.3197 156.591 37.392 156.216 37.392C155.84 37.392 155.53 37.3283 155.252 37.2003L155.251 37.1991Z" fill="white"></path>
  <path d="M108.662 0.695171V24.9102H106.376V0.695171H108.662Z" fill="white"></path>
  <path d="M156.06 8.59712C157.354 9.9021 158 11.794 158 14.2734V24.623H155.787V14.5322C155.787 12.6137 155.327 11.1475 154.408 10.1337C153.489 9.12047 152.238 8.61358 150.657 8.61358C149.075 8.61358 147.696 9.16361 146.712 10.2631C145.729 11.3626 145.237 12.9588 145.237 15.0499V24.623H143.025V14.5322C143.025 12.6137 142.565 11.1475 141.646 10.1337C140.727 9.12047 139.466 8.61358 137.862 8.61358C136.259 8.61358 134.901 9.16361 133.918 10.2631C132.934 11.3626 132.443 12.9588 132.443 15.0499V24.623H130.198V6.8545H132.443V10.0048C132.999 8.90534 133.79 8.0698 134.816 7.4982C135.842 6.92716 136.986 6.64107 138.248 6.64107C139.766 6.64107 141.096 7.00833 142.24 7.74057C143.384 8.47394 144.212 9.55187 144.726 10.9749C145.196 9.57344 146.003 8.50062 147.147 7.75703C148.291 7.01344 149.589 6.64107 151.043 6.64107C153.095 6.64107 154.768 7.29385 156.062 8.59769L156.06 8.59712Z" fill="white"></path>
  <path d="M120.663 24.9113H108.32V22.9377H120.463C120.979 22.8145 123.819 22.0425 123.819 19.9769C123.819 18.1077 120.534 16.9861 119.323 16.7244C119.041 16.6892 117.775 16.507 116.498 15.932C114.427 15 113.333 13.5173 113.333 11.6442C113.333 9.77098 114.297 8.33886 116.048 7.51523C117.28 6.93625 118.506 6.86076 118.557 6.85792L118.613 6.85621H131.417V8.82986H118.646C118.332 8.85427 115.291 9.1534 115.291 11.6442C115.291 14.2666 119.543 14.7638 119.587 14.7684L119.634 14.7735L119.681 14.7831C119.74 14.7956 121.151 15.0942 122.576 15.81C125.221 17.1377 125.777 18.8088 125.777 19.9769C125.777 21.6304 124.873 23.0155 123.162 23.981C121.982 24.648 120.806 24.883 120.757 24.8926L120.665 24.9108L120.663 24.9113Z" fill="white"></path>
  <path d="M99.6417 8.63515C100.945 9.95034 101.597 11.857 101.597 14.3557V24.7853H99.3671V14.6162C99.3671 12.6829 98.9033 11.2054 97.9775 10.1836C97.0511 9.16248 95.7904 8.65161 94.1965 8.65161C92.6026 8.65161 91.2124 9.20562 90.2213 10.3136C89.2302 11.4216 88.7349 13.0303 88.7349 15.1373V24.7853H86.505V14.6162C86.505 12.6829 86.0412 11.2054 85.1154 10.1836C84.189 9.16248 82.9176 8.65161 81.3017 8.65161C79.6859 8.65161 78.3171 9.20562 77.3266 10.3136C76.3354 11.4216 75.8402 13.0303 75.8402 15.1373V24.7853H73.5776V6.98903H75.8402V10.0531C76.4002 8.94508 77.1977 8.10272 78.2316 7.52714C79.266 6.95157 80.4181 6.66321 81.6895 6.66321C83.2193 6.66321 84.5605 7.0333 85.7131 7.77122C86.8652 8.51027 87.7004 9.59671 88.2176 11.0305C88.6915 9.61828 89.5048 8.53695 90.6575 7.78711C91.8095 7.03785 93.1187 6.66264 94.5837 6.66264C96.652 6.66264 98.3377 7.32052 99.6412 8.63458L99.6417 8.63515Z" fill="white"></path>
  <path d="M63.7996 29.199H65.7093L43.355 0.481476L32.8303 13.7015L22.4316 0.527133L0 29.199H1.91353L22.4369 2.96809L31.8651 14.9131L20.6191 29.0375L20.6755 29.1985L20.7582 29.4356C20.7902 29.5284 21.5752 31.7421 23.496 33.9704C26.0608 36.9465 29.4373 38.5185 33.2619 38.5185C38.1063 38.5185 41.0658 36.1286 42.694 34.1221C44.4476 31.9654 45.0561 29.8186 45.0804 29.7277L45.1854 29.3541L45.0634 29.1985L33.7893 14.9166L43.3414 2.91801L63.7992 29.1985L63.7996 29.199ZM43.1411 29.199L43.5188 29.6772C42.9759 31.2133 40.4543 37.002 33.2624 37.002C29.8543 37.002 26.961 35.6612 24.6625 33.0151C23.3633 31.5187 22.625 29.9992 22.3285 29.3129L22.4185 29.199L32.825 16.1292L43.1411 29.199Z" fill="white"></path>
</svg>
